<svg xmlns="http://www.w3.org/2000/svg" viewBox="0 0 302 302" role="img" aria-label="Pique">
  <rect width="302" height="302" rx="66" fill="#0E1526"/>
  <g transform="translate(77 46.7) scale(0.735)">
    <path fill="#FBFAF8" d="M0,268v-3.83l7.66-2.68q7.65-2.29,10.14-6.89t2.49-12.26V41.73q0-7.65-2.68-12.25T7.27,22.21L0,19.14V15.32H93q57,0,82.51,20.86t25.46,55a78.41,78.41,0,0,1-10.53,40Q180,149.32,155.83,160T90.74,170.77h-13v70.45q0,14.92,14.93,19.52l11.48,3.45V268ZM77.73,163.11H92.27q18.77,0,30.64-6.13t17.61-21.44q5.74-15.31,5.74-42.5,0-27.57-6.32-42.88T121.37,28.91Q109.12,23,90.74,23h-13Z"/>
  </g>
  <circle cx="228" cy="228" r="21" fill="#D4943A"/>
</svg>
